<?xml version="1.0" encoding="UTF-8" standalone="no"?>
<!-- Created with Inkscape (http://www.inkscape.org/) -->

<svg
   xmlns:ns1="http://www.iki.fi/pav/software/textext/"
   xmlns:dc="http://purl.org/dc/elements/1.1/"
   xmlns:cc="http://creativecommons.org/ns#"
   xmlns:rdf="http://www.w3.org/1999/02/22-rdf-syntax-ns#"
   xmlns:svg="http://www.w3.org/2000/svg"
   xmlns="http://www.w3.org/2000/svg"
   xmlns:sodipodi="http://sodipodi.sourceforge.net/DTD/sodipodi-0.dtd"
   xmlns:inkscape="http://www.inkscape.org/namespaces/inkscape"
   width="1920"
   height="1080"
   viewBox="0 0 1920.0001 1080"
   id="svg2"
   version="1.1"
   inkscape:version="0.91 r13725"
   sodipodi:docname="theme_template_normal.svg">
  <sodipodi:namedview
     id="base"
     pagecolor="#ffffff"
     bordercolor="#666666"
     borderopacity="1.0"
     inkscape:pageopacity="0.0"
     inkscape:pageshadow="2"
     inkscape:zoom="0.35"
     inkscape:cx="1441.8849"
     inkscape:cy="249.65585"
     inkscape:document-units="px"
     inkscape:current-layer="layer2"
     showgrid="false"
     width="1920mm"
     units="px"
     inkscape:window-width="1918"
     inkscape:window-height="1059"
     inkscape:window-x="0"
     inkscape:window-y="0"
     inkscape:window-maximized="0"
     showguides="true"
     inkscape:guide-bbox="true" />
  <defs
     id="defs4">
    <filter
       style="color-interpolation-filters:sRGB"
       height="1.6404169"
       y="-0.32020846"
       width="1.5547189"
       x="-0.27735946"
       id="filter4007-6-3-0-6"
       inkscape:collect="always">
      <feGaussianBlur
         id="feGaussianBlur4009-7-1-0-6"
         stdDeviation="2.1892145"
         inkscape:collect="always" />
    </filter>
    <filter
       style="color-interpolation-filters:sRGB"
       height="1.6404169"
       y="-0.32020846"
       width="1.5547189"
       x="-0.27735946"
       id="filter4007-6-3-4"
       inkscape:collect="always">
      <feGaussianBlur
         id="feGaussianBlur4009-7-1-5"
         stdDeviation="2.1892145"
         inkscape:collect="always" />
    </filter>
    <filter
       style="color-interpolation-filters:sRGB"
       height="1.5929892"
       y="-0.2964946"
       width="1.5136207"
       x="-0.25681037"
       id="filter4041-2-7-59"
       inkscape:collect="always">
      <feGaussianBlur
         id="feGaussianBlur4043-9-4-5"
         stdDeviation="1.6448618"
         inkscape:collect="always" />
    </filter>
    <filter
       style="color-interpolation-filters:sRGB"
       id="filter4071-7-9-3"
       inkscape:collect="always">
      <feGaussianBlur
         id="feGaussianBlur4073-2-5-2"
         stdDeviation="2.1202225"
         inkscape:collect="always" />
    </filter>
  </defs>
  <metadata
     id="metadata7">
    <rdf:RDF>
      <cc:Work
         rdf:about="">
        <dc:format>image/svg+xml</dc:format>
        <dc:type
           rdf:resource="http://purl.org/dc/dcmitype/StillImage" />
        <dc:title />
      </cc:Work>
    </rdf:RDF>
  </metadata>
  <g
     inkscape:label="clear_bg"
     inkscape:groupmode="layer"
     id="layer1"
     transform="translate(0,27.637508)"
     style="display:inline">
    <rect
       style="opacity:1;fill:#f8f9fb;fill-opacity:1;stroke:none;stroke-width:5;stroke-linecap:round;stroke-linejoin:round;stroke-miterlimit:4;stroke-dasharray:none;stroke-dashoffset:0;stroke-opacity:1"
       id="rect3344"
       width="1920.0001"
       height="1080.0001"
       x="0"
       y="-27.637569" />
  </g>
  <g
     inkscape:groupmode="layer"
     id="layer2"
     inkscape:label="foreground"
     style="display:inline">
    <rect
       transform="translate(0,27.637508)"
       style="opacity:1;fill:#35455d;fill-opacity:1;stroke:none;stroke-width:5;stroke-linecap:round;stroke-linejoin:round;stroke-miterlimit:4;stroke-dasharray:none;stroke-dashoffset:0;stroke-opacity:1"
       id="rect4147"
       width="1920.0001"
       height="80.000008"
       x="0"
       y="-27.637568" />
    <rect
       transform="translate(0,27.637508)"
       style="opacity:1;fill:#35455d;fill-opacity:1;stroke:none;stroke-width:5;stroke-linecap:round;stroke-linejoin:round;stroke-miterlimit:4;stroke-dasharray:none;stroke-dashoffset:0;stroke-opacity:1"
       id="rect4147-3"
       width="1920.0002"
       height="40.000004"
       x="0"
       y="1012.3625" />
    <path
       transform="translate(0,27.637508)"
       inkscape:connector-curvature="0"
       id="path4429"
       style="fill:#f8f9fb;fill-opacity:1;fill-rule:nonzero;stroke:none"
       d="m 1847.1196,8.38921 0,-30.134545 20.8763,0 c 9.5762,0 17.1531,4.401318 17.1531,14.7793852 0,10.6112032 -8.679,15.3551598 -18.174,15.3551598 l -19.8554,0 z m 0,38.251904 0,-32.275154 21.2083,0 c 10.4876,0 18.9582,4.856992 18.9582,15.90974 0,11.271754 -8.2375,16.365414 -18.7357,16.365414 l -21.4308,0 z m -7.1035,6.08272 30.244,0 c 12.2926,0 24.2426,-6.994069 24.2426,-22.229128 0,-9.590352 -5.9732,-17.937314 -17.2591,-19.632845 l 0,-0.113036 c 9.3678,-2.2465795 14.8995,-10.04249342 14.8995,-18.8486617 0,-12.9672863 -8.9122,-19.7317513 -22.4623,-19.7317513 l -29.6647,0 0,80.555422" />
    <path
       transform="translate(0,27.637508)"
       inkscape:connector-curvature="0"
       id="path4431"
       style="fill:#f8f9fb;fill-opacity:1;fill-rule:nonzero;stroke:none"
       d="m 1792.8238,54.076727 c 18.8486,0 32.6213,-10.819612 32.6213,-30.466587 l 0,-51.342822 -17.3722,0 0,50.791774 c 0,10.484039 -5.2031,15.895611 -14.903,15.895611 -10.3922,0 -15.122,-6.432424 -15.122,-15.895611 l 0,-50.791774 -17.5947,0 0,52.363674 c 0,19.74588 12.8755,29.445735 32.3706,29.445735" />
    <path
       transform="translate(0,27.637508)"
       inkscape:connector-curvature="0"
       id="path4433"
       style="fill:#f8f9fb;fill-opacity:1;fill-rule:nonzero;stroke:none"
       d="m 1732.099,25.775476 c 11.2576,-6.372374 15.5918,-15.8532227 15.5918,-25.44357436 0,-15.80023664 -11.3,-28.09284264 -27.9975,-28.09284264 l -35.5849,0 0,80.442387 17.4816,0 0,-66.231711 13.7585,0 c 9.7953,0 15.2174,5.8389877 15.2174,13.88216664 0,6.92695386 -4.2494,13.93515236 -15.1079,13.93515236 l -11.0103,0 27.6513,38.414392 19.3043,0 -19.3043,-26.90597" />
    <path
       transform="translate(0,27.637508)"
       inkscape:connector-curvature="0"
       id="path4435"
       style="fill:#f8f9fb;fill-opacity:1;fill-rule:nonzero;stroke:none"
       d="m 1472.1371,49.078696 6.8958,0 c 2.7128,0 5.2991,-1.583575 5.2991,-4.867547 0,-2.041124 -1.2169,-3.829136 -3.5372,-4.247745 l 0,-0.02272 c 1.9536,-0.571126 3.031,-2.141721 3.031,-3.981653 0,-2.839402 -1.9536,-4.309401 -4.9941,-4.309401 l -6.6946,0 0,17.429061 z m 1.9796,-1.684171 0,-6.428407 4.4748,0 c 2.1547,0 3.7642,0.950794 3.7642,3.157416 0,2.216356 -1.6095,3.270991 -3.7383,3.270991 l -4.5007,0 z m 0,-8.089863 0,-5.967612 4.3093,0 c 1.9762,0 3.4721,0.859934 3.4721,2.927019 0,2.067084 -1.6484,3.040593 -3.5986,3.040593 l -4.1828,0 z m 20.0769,10.092047 c 3.589,0 6.5939,-2.359137 6.5939,-6.30185 l 0,-5.75344 c 0,-3.803177 -2.9302,-6.022778 -6.6425,-6.022778 -3.6021,0 -6.6296,2.333178 -6.6296,6.30185 l 0,5.944897 c 0,3.803176 3.0275,5.831321 6.6782,5.831321 m 0,-1.762052 c -2.7486,0 -4.728,-1.635496 -4.728,-4.296421 l 0,-5.743705 c 0,-2.891322 2.0541,-4.513838 4.6015,-4.513838 2.8134,0 4.7669,1.547879 4.7669,4.195825 l 0,5.957877 c 0,2.865363 -2.1287,4.400262 -4.6404,4.400262 m 16.7833,1.762052 c 3.4722,0 6.1624,-1.927548 6.1624,-5.23748 l 0,-0.619801 -1.879,0 0,0.366689 c 0,2.346157 -1.736,3.72854 -4.2834,3.72854 -2.7388,0 -4.715,-1.661455 -4.715,-4.296421 l 0,-5.844301 c 0,-2.764767 2.0541,-4.374302 4.5884,-4.374302 2.5734,0 4.41,1.369403 4.41,3.715561 l 0,0.606821 1.879,0 0,-0.850198 c 0,-3.219071 -2.7389,-5.234235 -6.2111,-5.234235 -3.8161,0 -6.6166,2.446752 -6.6166,6.162313 l 0,6.045493 c 0,3.803176 2.953,5.831321 6.6653,5.831321 m 9.8487,-0.318013 1.9794,0 0,-8.138538 8.833,0 0,8.138538 1.9795,0 0,-17.429062 -1.9795,0 0,7.554433 -8.833,0 0,-7.554433 -1.9794,0 0,17.429062 z m 23.4259,0.292053 c 3.855,0 6.503,-2.268277 6.4771,-6.110394 l 0,-11.610721 -1.9504,0 0,11.471185 c 0.062,2.852383 -1.6354,4.474897 -4.4748,4.474897 -2.6253,0 -4.5009,-1.444038 -4.5009,-4.549532 l 0,-11.39655 -1.9762,0 0,11.737277 c 0,4.208805 3.0536,5.983838 6.4252,5.983838 m 10.6728,-0.292053 1.9146,0 0,-13.956878 0.074,0 5.1109,9.92655 1.5577,0 5.1076,-9.952511 0.052,0 0,13.982839 1.9146,0 0,-17.429062 -2.4468,0 -5.3608,10.685887 -0.026,0 -5.4776,-10.685887 -2.4209,0 0,17.429062" />
    <path
       transform="translate(0,27.637508)"
       inkscape:connector-curvature="0"
       id="path4437"
       style="fill:#f8f9fb;fill-opacity:1;fill-rule:nonzero;stroke:none"
       d="m 1478.6661,21.155203 c 4.0564,0 6.8211,-2.385098 6.8211,-6.541982 l 0,-11.1661524 -3.245,0 0,11.0266154 c 0,2.485695 -1.2039,3.738277 -3.5761,3.738277 -2.5473,0 -3.5727,-1.583576 -3.5727,-3.738277 l 0,-11.0266154 -3.2451,0 0,11.4192654 c 0,4.182844 2.7616,6.288869 6.8178,6.288869 m 10.7119,-0.279072 3.1184,0 0,-11.9027743 0.049,0 7.5577,11.9027743 3.1802,0 0,-17.4290624 -3.1315,0 0,11.8897944 -0.049,0 -7.5804,-11.8897944 -3.1444,0 0,17.4290624 z m 17.9093,0 3.2451,0 0,-17.4290624 -3.2451,0 0,17.4290624 z m 11.2181,0.07463 3.1833,0 5.7665,-17.503698 -3.2321,0 -3.9297,12.827608 -0.049,0 -3.9297,-12.827608 -3.5241,0 5.7145,17.503698 z m 11.1953,-0.07463 12.2046,0 0,-2.865362 -8.9465,0 0,-4.588475 7.8464,0 0,-2.865362 -7.8464,0 0,-4.247746 8.8459,0 0,-2.8621174 -12.104,0 0,17.4290624 z m 15.7676,0 3.2451,0 0,-6.529003 2.8134,0 4.0823,6.529003 3.5501,0 -4.3224,-6.882711 c 2.3429,-0.837218 3.4462,-2.991919 3.4462,-5.0719843 0,-3.5630437 -2.635,-5.4743671 -5.919,-5.4743671 l -6.8957,0 0,17.4290624 z m 3.2451,-9.254829 0,-5.4386722 3.2061,0 c 1.814,0 3.1833,0.6587409 3.1833,2.7128459 0,1.8139723 -1.2428,2.7258263 -3.1314,2.7258263 l -3.258,0 z m 18.9769,9.533901 c 3.8389,0 6.6912,-2.131985 6.6912,-5.338075 0,-3.105495 -1.9015,-4.348342 -3.9783,-4.841587 l -2.9789,-0.723642 c -1.3695,-0.3796693 -2.5474,-0.9378143 -2.5474,-2.1547013 0,-1.570595 1.3661,-2.2066206 2.7875,-2.2066206 1.6842,0 2.9919,0.53543 3.7512,2.0054286 l 2.6512,-1.168211 c -1.1163,-2.6090046 -3.2223,-3.5727788 -6.1364,-3.5727788 -3.3715,0 -6.2239,1.9145682 -6.2239,5.1823148 0,3.0827803 1.8497,4.1341703 4.1698,4.7182753 l 2.9401,0.707417 c 1.3433,0.392648 2.3981,0.976754 2.3981,2.281257 0,1.61278 -1.6615,2.294237 -3.4236,2.294237 -1.9535,0 -3.5501,-0.960529 -4.2087,-2.634966 l -2.9271,1.142251 c 0.8988,2.952979 3.8259,4.309401 7.0352,4.309401 m 9.9753,-0.279072 3.2449,0 0,-17.4290624 -3.2449,0 0,17.4290624 z m 11.1661,0 3.2223,0 0,-14.6415807 5.0168,0 0,-2.7874817 -13.2462,0 0,2.7874817 5.0071,0 0,14.6415807 z m 7.5058,0 3.206,0 1.3175,-3.71556 6.6426,0 1.2818,3.71556 3.4462,0 -6.4381,-17.4290624 -2.9789,0 -6.4771,17.4290624 z m 5.4257,-6.503043 2.3948,-6.9735713 0.052,0 2.3688,6.9735713 -4.8156,0 z m -1.3954,-12.4868794 2.9173,0 0,-3.1931106 -2.9173,0 0,3.1931106 z m 4.8935,0 2.914,0 0,-3.1931106 -2.914,0 0,3.1931106 z m 11.4323,18.9899224 3.232,0 0,-14.6415807 5.0071,0 0,-2.7874817 -13.2463,0 0,2.7874817 5.0072,0 0,14.6415807" />
    <path
       transform="translate(0,27.637508)"
       inkscape:connector-curvature="0"
       id="path4439"
       style="fill:#f8f9fb;fill-opacity:1;fill-rule:nonzero;stroke:none"
       d="m 1471.9619,-7.3296796 3.2581,0 0,-6.5257574 2.8134,0 4.0822,6.5257574 3.5371,0 -4.3256,-6.8827104 c 2.3461,-0.837219 3.4494,-2.978939 3.4494,-5.055759 0,-3.576024 -2.6382,-5.490593 -5.9189,-5.490593 l -6.8957,0 0,17.4290624 z m 3.2581,-9.2515834 0,-5.425692 3.206,0 c 1.801,0 3.1704,0.645761 3.1704,2.712846 0,1.797747 -1.2429,2.712846 -3.1315,2.712846 l -3.2449,0 z m 19.8498,9.5306561 c 4.0562,0 6.8178,-2.3688729 6.8178,-6.5290031 l 0,-11.179132 -3.2548,0 0,11.029861 c 0,2.495429 -1.1942,3.7512563 -3.563,3.7512563 -2.5474,0 -3.5761,-1.5965553 -3.5761,-3.7512563 l 0,-11.029861 -3.245,0 0,11.42251 c 0,4.1828453 2.7647,6.2856251 6.8211,6.2856251 m 10.7118,-0.2790727 3.2451,0 0,-7.4538354 6.9703,0 0,7.4538354 3.245,0 0,-17.4290624 -3.245,0 0,7.122844 -6.9703,0 0,-7.122844 -3.2451,0 0,17.4290624 z m 17.4778,0 3.245,0 0,-6.5257574 2.8167,0 4.079,6.5257574 3.5371,0 -4.3224,-6.8827104 c 2.3462,-0.837219 3.4364,-2.978939 3.4364,-5.055759 0,-3.576024 -2.6251,-5.490593 -5.9091,-5.490593 l -6.8827,0 0,17.4290624 z m 3.245,-9.2515834 0,-5.425692 3.1963,0 c 1.8108,0 3.1802,0.645761 3.1802,2.712846 0,1.797747 -1.2559,2.712846 -3.1315,2.712846 l -3.245,0" />
    <rect
       transform="translate(0,27.637508)"
       style="opacity:1;fill:#9eb1ce;fill-opacity:1;stroke:none;stroke-width:5;stroke-linecap:round;stroke-linejoin:round;stroke-miterlimit:4;stroke-dasharray:none;stroke-dashoffset:0;stroke-opacity:1"
       id="rect4147-3-6"
       width="1920.0001"
       height="5.0000005"
       x="0"
       y="1007.3625" />
    <g
       id="g4668"
       transform="matrix(1.2473896,0,0,1.2473896,-5.9737984,-223.86782)">
      <path
         sodipodi:nodetypes="cccccccccccccccccccccccccccccccccccccccccccccccccc"
         id="path2985-6-5-3-0-8-68-1-9-5"
         d="m 78.272537,853.9566 -0.134659,16.76551 -3.272842,0.0667 c -15.734308,0.57067 -26.610437,8.94233 -38.139981,16.23115 -5.777704,15.61938 -1.822164,34.96809 -0.868227,53.16872 l -4.274872,9.75208 -1.803568,21.84192 39.876648,18.70257 2.604893,-14.96205 -15.629787,-9.1509 -0.86844,-9.1509 8.683333,5.00962 11.689211,-2.53821 -16.431754,-15.36284 3.874317,-22.84385 c 2.04574,16.55637 13.782615,31.29339 22.57645,46.55605 l -7.41412,27.65308 -2.204338,23.64535 -6.278504,5.6108 1.135406,8.2826 15.629996,2.4714 9.95255,-2.0707 6.478991,-7.481 3.47334,-25.3153 5.54408,-8.14892 5.74415,7.74822 6.07844,26.9851 15.5631,7.8818 14.49459,-1.5363 7.14695,-5.4772 -3.54003,-9.5516 -12.49075,-7.0803 1.73689,-17.43344 -7.74821,-25.78282 c 5.53062,-14.46786 12.31527,-24.68664 15.16233,-48.15913 l 12.08998,25.71605 -11.55562,14.42769 7.6813,2.605 8.21588,-6.21192 -0.40077,8.68333 -11.28844,9.55167 6.47921,12.89141 23.84588,-22.84384 0.86822,-26.58439 -9.95233,-12.89141 c -1.77856,-12.93174 2.22251,-26.29811 -7.34765,-38.60744 -11.67617,-5.66335 -19.40642,-14.25637 -35.13389,-16.8991 l 0.13252,-15.76359 -29.85634,-16.83227 z"
         style="display:inline;fill:#322a2a;stroke:#9eb1ce;stroke-width:10.68718052;stroke-miterlimit:4;stroke-dasharray:none;stroke-opacity:1"
         inkscape:connector-curvature="0" />
      <path
         inkscape:connector-curvature="0"
         style="fill:#35455d;fill-opacity:1;stroke:none"
         id="path2985-6-5-3-0-8-68"
         d="M 86.115579,968.4925 C 77.32157,953.22983 65.627722,938.52316 63.581746,921.9668 l -3.900158,22.84741 16.467043,15.37012 -11.70024,2.49244 -8.666854,-4.98489 0.866666,9.13897 15.600376,9.13897 -2.600062,14.95468 -39.867629,-18.69333 1.814363,-21.84872 4.252429,-9.72232 c -0.95398,-18.20063 -4.911101,-37.55281 0.866645,-53.17219 11.52948,-7.28882 22.399945,-15.63023 38.134338,-16.20091 l 59.368057,-1.24623 c 18.43111,1.76657 26.3987,11.33463 39.00096,17.44714 9.56986,12.30933 5.58844,25.70118 7.36687,38.63292 l 9.96684,12.87765 -0.86667,26.58613 -23.8339,22.84744 -6.50012,-12.87767 11.26692,-9.55438 0.43332,-8.72356 -8.23351,6.23112 -7.69182,-2.5963 11.59187,-14.43541 -12.13358,-25.75534 c -2.84711,23.47249 -9.63612,33.71951 -15.16705,48.18737 l 7.80018,25.75531 -1.73339,17.44718 12.46185,7.0914 3.57185,9.5248 -7.17397,5.5286 -14.4932,1.5334 -15.60038,-7.8928 -6.06679,-27.0015 -5.71796,-7.72925 -5.54896,8.14465 -3.4667,25.3399 -6.500231,7.4773 -9.9678,2.0536 -15.599414,-2.469 -1.15133,-8.2786 6.320975,-5.6585 2.17856,-23.59242 z" />
      <path
         transform="matrix(1.0487896,-0.26624686,0.27774246,1.0053809,-773.49552,364.19995)"
         inkscape:connector-curvature="0"
         style="fill:#9eb1ce;fill-opacity:0.30898874;stroke:none;filter:url(#filter4071-7-9-3)"
         id="path4341-3-3-3-4-5-4"
         d="m 628.6429,690.33136 9.50369,-30.47974 31.14807,-7.00942 21.64438,23.47031 -9.50369,30.47973 -31.14807,7.00943 z" />
      <path
         inkscape:connector-curvature="0"
         style="fill:#35455d;fill-opacity:1;stroke:none"
         id="path4341-3-3-6-2-3"
         d="m 77.984496,887.61452 0.250507,-33.20442 30.122677,-16.39425 29.87227,16.81017 -0.25051,33.20443 -30.12267,16.39426 z" />
      <g
         style="fill:#55ffdd;fill-opacity:1;stroke-width:5.03043222;stroke-miterlimit:4;stroke-dasharray:none"
         transform="matrix(1.0849426,0,0,1.0400375,-607.56146,162.77091)"
         id="g3159-8-4-5">
        <path
           d="m 653.70899,669.57838 4.73802,8.20145 -4.73365,8.20397 -9.47167,0.003 -4.73802,-8.20145 4.73365,-8.20396 z"
           id="path3761-7-7-2-06-3-8-1"
           style="fill:#55ffdd;fill-opacity:1;stroke:none"
           inkscape:connector-curvature="0" />
        <path
           d="m 674.46387,670.32059 3.84475,6.65521 -3.84121,6.65726 -7.68595,0.002 -3.84476,-6.65521 3.84121,-6.65726 z"
           id="path3761-7-9-9-7-9-95-2-4"
           style="fill:#55ffdd;fill-opacity:1;stroke:none"
           inkscape:connector-curvature="0" />
        <path
           d="m 653.61167,669.57838 4.73802,8.20145 -4.73365,8.20397 -9.47167,0.003 -4.73802,-8.20145 4.73365,-8.20396 z"
           id="path3761-7-7-2-06-7-8-9-9"
           style="opacity:0.73831781;fill:#55ffdd;fill-opacity:1;stroke:none;filter:url(#filter4007-6-3-4)"
           inkscape:connector-curvature="0" />
        <path
           d="m 674.54513,670.24053 3.84475,6.65521 -3.84121,6.65726 -7.68595,0.002 -3.84476,-6.65521 3.84121,-6.65726 z"
           id="path3761-7-9-9-7-9-6-0-6-2"
           style="opacity:0.81775668;fill:#55ffdd;fill-opacity:1;stroke:none;filter:url(#filter4041-2-7-59)"
           inkscape:connector-curvature="0" />
        <path
           class="flicker-right"
           inkscape:connector-curvature="0"
           style="fill:#ffffff;fill-opacity:1;stroke:none;filter:url(#filter4041-2-7-59)"
           id="right-eye-5"
           d="m 674.54513,670.24053 3.84475,6.65521 -3.84121,6.65726 -7.68595,0.002 -3.84476,-6.65521 3.84121,-6.65726 z" />
      </g>
      <path
         transform="matrix(1.0849426,0,0,1.0400375,-0.45545321,831.83625)"
         inkscape:connector-curvature="0"
         style="fill:#ffffff;fill-opacity:1;stroke:none;filter:url(#filter4007-6-3-0-6)"
         id="left-eye-5"
         d="m 94.244055,26.704982 4.73802,8.20145 -4.73365,8.20397 -9.471668,0.003 -4.73802,-8.20145 4.73365,-8.20396 z"
         class="flicker-left" />
    </g>
    <text
       xml:space="preserve"
       style="font-style:normal;font-weight:normal;font-size:40px;line-height:125%;font-family:sans-serif;letter-spacing:0px;word-spacing:0px;fill:#000000;fill-opacity:1;stroke:none;stroke-width:1px;stroke-linecap:butt;stroke-linejoin:miter;stroke-opacity:1"
       x="234.35539"
       y="1067.3729"
       id="text4164"
       sodipodi:linespacing="125%"><tspan
         sodipodi:role="line"
         id="tspan4166"
         x="234.35539"
         y="1067.3729" /></text>
    <flowRoot
       xml:space="preserve"
       id="flowRoot4168"
       style="fill:black;stroke:none;stroke-opacity:1;stroke-width:1px;stroke-linejoin:miter;stroke-linecap:butt;fill-opacity:1;font-family:sans-serif;font-style:normal;font-weight:normal;font-size:40px;line-height:125%;letter-spacing:0px;word-spacing:0px"><flowRegion
         id="flowRegion4170"><rect
           id="rect4172"
           width="4691.4287"
           height="5188.5713"
           x="-831.42859"
           y="-614.28571" /></flowRegion><flowPara
         id="flowPara4174" /></flowRoot>    <flowRoot
       xml:space="preserve"
       id="flowRoot4176"
       style="fill:black;stroke:none;stroke-opacity:1;stroke-width:1px;stroke-linejoin:miter;stroke-linecap:butt;fill-opacity:1;font-family:sans-serif;font-style:normal;font-weight:normal;font-size:40px;line-height:125%;letter-spacing:0px;word-spacing:0px"><flowRegion
         id="flowRegion4178"><rect
           id="rect4180"
           width="3197.1428"
           height="2037.1428"
           x="-540"
           y="-448.57141" /></flowRegion><flowPara
         id="flowPara4182" /></flowRoot>    <g
       id="g4415"
       style="fill:#9eb1ce;fill-opacity:1"
       ns1:jacobian_sqrt="2.97038"
       inkscapeversion="0.91"
       ns1:alignment="middle center"
       ns1:scale="2.37630417179"
       ns1:preamble="/home/me/.config/inkscape/extensions/textext/default_packages.tex"
       ns1:text="\\textbf{\\textsf{Cornelius Aschermann}}"
       ns1:pdfconverter="pdf2svg"
       ns1:texconverter="pdflatex"
       ns1:version="0.9.0"
       transform="matrix(2.97038,0,0,2.97038,1027.8572,669.48698)">
      <g
         style="fill:#9eb1ce;fill-opacity:1"
         id="surface1">
        <g
           id="g4418"
           style="fill:#9eb1ce;fill-opacity:1">
          <path
             id="path4420"
             transform="translate(148.712,134.765)"
             d="m 6.375,-1.421875 c 0,-0.078125 -0.0625,-0.125 -0.109375,-0.125 -0.234375,0 -0.53125,0.65625 -1.921875,0.65625 -1.765625,0 -2.265625,-1.078125 -2.265625,-2.578125 0,-1.484375 0.546875,-2.5625 2.171875,-2.5625 0.890625,0 1.359375,0.34375 1.625,0.5625 0.0625,0.0625 0.09375,0.09375 0.171875,0.09375 0.03125,0 0.078125,-0.046875 0.09375,-0.09375 L 6.34375,-6.5625 c 0,-0.046875 0,-0.09375 -0.078125,-0.109375 C 5.671875,-6.890625 5.0625,-7.03125 4.28125,-7.03125 c -2.421875,0 -3.671875,1.171875 -3.671875,3.546875 0,2.453125 1.265625,3.578125 3.6875,3.578125 0.84375,0 1.375,-0.109375 2.109375,-0.5625 0.078125,-0.046875 0.046875,-0.125 0.046875,-0.125 z m 0,0"
             style="fill:#9eb1ce;fill-opacity:1;stroke:none;stroke-width:0"
             inkscape:connector-curvature="0" />
          <path
             id="path4422"
             transform="translate(155.71371,134.765)"
             d="m 5.15625,-2.25 c 0,-1.625 -0.796875,-2.484375 -2.421875,-2.484375 -1.65625,0 -2.421875,0.890625 -2.421875,2.484375 0,1.625 0.859375,2.359375 2.421875,2.359375 1.5625,0 2.421875,-0.71875 2.421875,-2.359375 z m -2.421875,1.578125 c -1.0625,0 -1.0625,-0.890625 -1.0625,-1.6875 0,-0.765625 0,-1.65625 1.0625,-1.65625 1.078125,0 1.078125,0.875 1.078125,1.65625 0,0.78125 0,1.6875 -1.078125,1.6875 z m 0,0"
             style="fill:#9eb1ce;fill-opacity:1;stroke:none;stroke-width:0"
             inkscape:connector-curvature="0" />
        </g>
        <g
           id="g4424"
           style="fill:#9eb1ce;fill-opacity:1">
          <path
             id="path4426"
             transform="translate(160.8843,134.765)"
             d="m 1.9375,-2.296875 c 0,-0.9375 0.78125,-1.328125 1.40625,-1.375 0.1875,0 0.203125,0 0.203125,-0.265625 l 0,-0.46875 c 0,-0.203125 0,-0.265625 -0.171875,-0.265625 -0.28125,0 -1.015625,0.09375 -1.484375,1.171875 l 0,-0.640625 C 1.890625,-4.46875 1.8125,-4.625 1.40625,-4.625 l -0.3125,0 c -0.359375,0 -0.484375,0.109375 -0.484375,0.484375 l 0,3.65625 C 0.609375,-0.125 0.71875,0 1.09375,0 L 1.453125,0 C 1.828125,0 1.9375,-0.125 1.9375,-0.484375 Z m 0,0"
             style="fill:#9eb1ce;fill-opacity:1;stroke:none;stroke-width:0"
             inkscape:connector-curvature="0" />
          <path
             id="path4428"
             transform="translate(164.59238,134.765)"
             d="m 4.984375,-3.234375 c 0,-1.03125 -0.4375,-1.4375 -1.453125,-1.4375 -1.046875,0 -1.5,0.75 -1.625,1.015625 l -0.015625,0 0,-0.484375 c 0,-0.328125 -0.0625,-0.484375 -0.46875,-0.484375 l -0.34375,0 c -0.359375,0 -0.484375,0.109375 -0.484375,0.484375 l 0,3.65625 C 0.59375,-0.125 0.703125,0 1.078125,0 L 1.46875,0 c 0.390625,0 0.484375,-0.125 0.484375,-0.484375 l 0,-2.203125 c 0,-0.859375 0.578125,-1.265625 1.09375,-1.265625 0.484375,0 0.578125,0.21875 0.578125,0.734375 l 0,2.734375 C 3.625,-0.15625 3.703125,0 4.109375,0 L 4.5,0 c 0.390625,0 0.484375,-0.125 0.484375,-0.484375 z m 0,0"
             style="fill:#9eb1ce;fill-opacity:1;stroke:none;stroke-width:0"
             inkscape:connector-curvature="0" />
        </g>
        <g
           id="g4430"
           style="fill:#9eb1ce;fill-opacity:1">
          <path
             id="path4432"
             transform="translate(170.19236,134.765)"
             d="m 4.296875,-2.140625 c 0.234375,0 0.484375,0 0.484375,-0.453125 0,-1.28125 -0.609375,-2.140625 -2.09375,-2.140625 -1.59375,0 -2.375,0.890625 -2.375,2.40625 0,1.640625 0.9375,2.4375 2.515625,2.4375 0.375,0 0.9375,-0.046875 1.59375,-0.375 C 4.640625,-0.375 4.71875,-0.40625 4.71875,-0.53125 c 0,-0.0625 -0.03125,-0.359375 -0.046875,-0.4375 -0.03125,-0.3125 -0.046875,-0.3125 -0.140625,-0.3125 -0.03125,0 -0.0625,0 -0.171875,0.09375 -0.578125,0.515625 -1.171875,0.578125 -1.5,0.578125 -1.125,0 -1.25,-0.890625 -1.28125,-1.53125 z M 1.59375,-2.65625 C 1.625,-3.265625 1.828125,-4.015625 2.6875,-4.015625 c 0.796875,0 0.953125,0.578125 0.984375,1.359375 z m 0,0"
             style="fill:#9eb1ce;fill-opacity:1;stroke:none;stroke-width:0"
             inkscape:connector-curvature="0" />
          <path
             id="path4434"
             transform="translate(175.28425,134.765)"
             d="m 1.9375,-6.4375 c 0,-0.328125 -0.078125,-0.484375 -0.484375,-0.484375 l -0.359375,0 c -0.359375,0 -0.484375,0.109375 -0.484375,0.484375 l 0,5.953125 C 0.609375,-0.125 0.71875,0 1.09375,0 L 1.453125,0 C 1.828125,0 1.9375,-0.125 1.9375,-0.484375 Z m 0,0"
             style="fill:#9eb1ce;fill-opacity:1;stroke:none;stroke-width:0"
             inkscape:connector-curvature="0" />
        </g>
        <g
           id="g4436"
           style="fill:#9eb1ce;fill-opacity:1">
          <path
             id="path4438"
             transform="translate(177.82072,134.765)"
             d="m 1.015625,-6.921875 c -0.3125,0 -0.484375,0.046875 -0.484375,0.453125 l 0,0.453125 C 0.53125,-5.6875 0.640625,-5.5625 1,-5.5625 l 0.53125,0 C 2,-5.5625 2,-5.765625 2,-6.234375 2,-6.71875 2,-6.921875 1.53125,-6.921875 Z M 1.9375,-4.09375 c 0,-0.3125 -0.078125,-0.46875 -0.484375,-0.46875 l -0.359375,0 c -0.359375,0 -0.484375,0.109375 -0.484375,0.46875 l 0,3.609375 C 0.609375,-0.125 0.71875,0 1.09375,0 L 1.453125,0 C 1.828125,0 1.9375,-0.125 1.9375,-0.484375 Z m 0,0"
             style="fill:#9eb1ce;fill-opacity:1;stroke:none;stroke-width:0"
             inkscape:connector-curvature="0" />
          <path
             id="path4440"
             transform="translate(180.36716,134.765)"
             d="m 4.984375,-4.09375 c 0,-0.3125 -0.0625,-0.46875 -0.484375,-0.46875 l -0.390625,0 c -0.375,0 -0.484375,0.125 -0.484375,0.46875 l 0,2.375 C 3.625,-1.0625 3.28125,-0.5 2.578125,-0.5 c -0.5625,0 -0.625,-0.140625 -0.625,-0.671875 l 0,-2.921875 c 0,-0.3125 -0.0625,-0.46875 -0.484375,-0.46875 l -0.390625,0 c -0.359375,0 -0.484375,0.109375 -0.484375,0.46875 l 0,2.84375 c 0,1.0625 0.578125,1.359375 1.625,1.359375 0.265625,0 0.96875,0 1.4375,-0.84375 l 0,0.25 C 3.65625,-0.15625 3.734375,0 4.140625,0 L 4.5,0 c 0.390625,0 0.484375,-0.125 0.484375,-0.484375 z m 0,0"
             style="fill:#9eb1ce;fill-opacity:1;stroke:none;stroke-width:0"
             inkscape:connector-curvature="0" />
          <path
             id="path4442"
             transform="translate(185.95718,134.765)"
             d="m 3.953125,-1.40625 c 0,-0.5625 -0.296875,-0.90625 -0.484375,-1.0625 -0.390625,-0.359375 -0.75,-0.421875 -1.171875,-0.5 -0.546875,-0.109375 -0.9375,-0.1875 -0.9375,-0.5625 0,-0.421875 0.328125,-0.5 0.71875,-0.5 0.65625,0 1.015625,0.25 1.28125,0.46875 0.09375,0.109375 0.125,0.109375 0.15625,0.109375 0.109375,0 0.125,-0.09375 0.140625,-0.140625 0.015625,-0.078125 0.109375,-0.640625 0.109375,-0.6875 0,-0.15625 -0.53125,-0.296875 -0.640625,-0.328125 -0.390625,-0.109375 -0.71875,-0.125 -0.96875,-0.125 -0.453125,0 -1.78125,0 -1.78125,1.421875 0,0.484375 0.21875,0.796875 0.484375,1.03125 0.34375,0.3125 0.734375,0.390625 1.296875,0.5 0.296875,0.046875 0.796875,0.140625 0.796875,0.578125 0,0.46875 -0.375,0.53125 -0.765625,0.53125 -0.4375,0 -1,-0.125 -1.46875,-0.6875 C 0.671875,-1.40625 0.640625,-1.4375 0.578125,-1.4375 c -0.09375,0 -0.125,0.09375 -0.125,0.15625 -0.03125,0.140625 -0.140625,0.703125 -0.140625,0.796875 0,0.1875 0.734375,0.421875 0.75,0.421875 0.546875,0.171875 0.953125,0.171875 1.125,0.171875 0.5,0 1.765625,-0.046875 1.765625,-1.515625 z m 0,0"
             style="fill:#9eb1ce;fill-opacity:1;stroke:none;stroke-width:0"
             inkscape:connector-curvature="0" />
        </g>
        <g
           id="g4444"
           style="fill:#9eb1ce;fill-opacity:1">
          <path
             id="path4446"
             transform="translate(193.81468,134.765)"
             d="m 4.71875,-6.484375 c -0.140625,-0.4375 -0.4375,-0.4375 -0.625,-0.4375 l -0.890625,0 c -0.1875,0 -0.484375,0 -0.625,0.4375 L 0.46875,-0.46875 C 0.421875,-0.34375 0.421875,-0.3125 0.421875,-0.265625 0.421875,0 0.671875,0 0.8125,0 l 0.359375,0 c 0.171875,0 0.484375,0 0.625,-0.40625 L 2.1875,-1.5 l 2.75,0 0.34375,0.953125 C 5.40625,-0.203125 5.46875,0 5.953125,0 l 0.53125,0 C 6.625,0 6.875,0 6.875,-0.265625 c 0,-0.046875 0,-0.078125 -0.046875,-0.203125 z M 3.203125,-4.46875 c 0.140625,-0.453125 0.28125,-0.828125 0.359375,-1.1875 0.0625,0.25 0.0625,0.265625 0.140625,0.5 l 0.9375,2.796875 -2.15625,0 z m 0,0"
             style="fill:#9eb1ce;fill-opacity:1;stroke:none;stroke-width:0"
             inkscape:connector-curvature="0" />
          <path
             id="path4448"
             transform="translate(201.12026,134.765)"
             d="m 3.953125,-1.40625 c 0,-0.5625 -0.296875,-0.90625 -0.484375,-1.0625 -0.390625,-0.359375 -0.75,-0.421875 -1.171875,-0.5 -0.546875,-0.109375 -0.9375,-0.1875 -0.9375,-0.5625 0,-0.421875 0.328125,-0.5 0.71875,-0.5 0.65625,0 1.015625,0.25 1.28125,0.46875 0.09375,0.109375 0.125,0.109375 0.15625,0.109375 0.109375,0 0.125,-0.09375 0.140625,-0.140625 0.015625,-0.078125 0.109375,-0.640625 0.109375,-0.6875 0,-0.15625 -0.53125,-0.296875 -0.640625,-0.328125 -0.390625,-0.109375 -0.71875,-0.125 -0.96875,-0.125 -0.453125,0 -1.78125,0 -1.78125,1.421875 0,0.484375 0.21875,0.796875 0.484375,1.03125 0.34375,0.3125 0.734375,0.390625 1.296875,0.5 0.296875,0.046875 0.796875,0.140625 0.796875,0.578125 0,0.46875 -0.375,0.53125 -0.765625,0.53125 -0.4375,0 -1,-0.125 -1.46875,-0.6875 C 0.671875,-1.40625 0.640625,-1.4375 0.578125,-1.4375 c -0.09375,0 -0.125,0.09375 -0.125,0.15625 -0.03125,0.140625 -0.140625,0.703125 -0.140625,0.796875 0,0.1875 0.734375,0.421875 0.75,0.421875 0.546875,0.171875 0.953125,0.171875 1.125,0.171875 0.5,0 1.765625,-0.046875 1.765625,-1.515625 z m 0,0"
             style="fill:#9eb1ce;fill-opacity:1;stroke:none;stroke-width:0"
             inkscape:connector-curvature="0" />
          <path
             id="path4450"
             transform="translate(205.32149,134.765)"
             d="m 4.5625,-0.5 c 0,-0.109375 -0.046875,-0.5625 -0.0625,-0.703125 0,-0.015625 -0.03125,-0.125 -0.125,-0.125 -0.03125,0 -0.0625,0 -0.15625,0.109375 -0.171875,0.140625 -0.640625,0.546875 -1.453125,0.546875 -1.046875,0 -1.046875,-1 -1.046875,-1.640625 0,-0.8125 0.0625,-1.640625 1.078125,-1.640625 0.640625,0 0.90625,0.15625 1.265625,0.453125 0.125,0.109375 0.140625,0.109375 0.1875,0.109375 0.09375,0 0.109375,-0.09375 0.125,-0.125 0.015625,-0.078125 0.125,-0.640625 0.125,-0.6875 0,-0.09375 -0.078125,-0.140625 -0.25,-0.21875 -0.46875,-0.21875 -0.765625,-0.3125 -1.46875,-0.3125 -1.484375,0 -2.40625,0.703125 -2.40625,2.4375 0,1.65625 0.84375,2.40625 2.359375,2.40625 C 3,0.109375 3.59375,0.09375 4.265625,-0.234375 4.546875,-0.390625 4.5625,-0.40625 4.5625,-0.5 Z m 0,0"
             style="fill:#9eb1ce;fill-opacity:1;stroke:none;stroke-width:0"
             inkscape:connector-curvature="0" />
          <path
             id="path4452"
             transform="translate(210.1922,134.765)"
             d="m 4.984375,-3.234375 c 0,-1.03125 -0.4375,-1.4375 -1.453125,-1.4375 -1,0 -1.453125,0.6875 -1.59375,0.96875 l -0.015625,0 0,-2.734375 c 0,-0.328125 -0.0625,-0.484375 -0.46875,-0.484375 l -0.375,0 c -0.359375,0 -0.484375,0.109375 -0.484375,0.484375 l 0,5.953125 C 0.59375,-0.125 0.703125,0 1.078125,0 L 1.46875,0 c 0.390625,0 0.484375,-0.125 0.484375,-0.484375 l 0,-2.203125 c 0,-0.859375 0.578125,-1.265625 1.09375,-1.265625 0.484375,0 0.578125,0.21875 0.578125,0.734375 l 0,2.734375 C 3.625,-0.15625 3.703125,0 4.109375,0 L 4.5,0 c 0.390625,0 0.484375,-0.125 0.484375,-0.484375 z m 0,0"
             style="fill:#9eb1ce;fill-opacity:1;stroke:none;stroke-width:0"
             inkscape:connector-curvature="0" />
          <path
             id="path4454"
             transform="translate(215.78222,134.765)"
             d="m 4.296875,-2.140625 c 0.234375,0 0.484375,0 0.484375,-0.453125 0,-1.28125 -0.609375,-2.140625 -2.09375,-2.140625 -1.59375,0 -2.375,0.890625 -2.375,2.40625 0,1.640625 0.9375,2.4375 2.515625,2.4375 0.375,0 0.9375,-0.046875 1.59375,-0.375 C 4.640625,-0.375 4.71875,-0.40625 4.71875,-0.53125 c 0,-0.0625 -0.03125,-0.359375 -0.046875,-0.4375 -0.03125,-0.3125 -0.046875,-0.3125 -0.140625,-0.3125 -0.03125,0 -0.0625,0 -0.171875,0.09375 -0.578125,0.515625 -1.171875,0.578125 -1.5,0.578125 -1.125,0 -1.25,-0.890625 -1.28125,-1.53125 z M 1.59375,-2.65625 C 1.625,-3.265625 1.828125,-4.015625 2.6875,-4.015625 c 0.796875,0 0.953125,0.578125 0.984375,1.359375 z m 0,0"
             style="fill:#9eb1ce;fill-opacity:1;stroke:none;stroke-width:0"
             inkscape:connector-curvature="0" />
          <path
             id="path4456"
             transform="translate(220.8741,134.765)"
             d="m 1.9375,-2.296875 c 0,-0.9375 0.78125,-1.328125 1.40625,-1.375 0.1875,0 0.203125,0 0.203125,-0.265625 l 0,-0.46875 c 0,-0.203125 0,-0.265625 -0.171875,-0.265625 -0.28125,0 -1.015625,0.09375 -1.484375,1.171875 l 0,-0.640625 C 1.890625,-4.46875 1.8125,-4.625 1.40625,-4.625 l -0.3125,0 c -0.359375,0 -0.484375,0.109375 -0.484375,0.484375 l 0,3.65625 C 0.609375,-0.125 0.71875,0 1.09375,0 L 1.453125,0 C 1.828125,0 1.9375,-0.125 1.9375,-0.484375 Z m 0,0"
             style="fill:#9eb1ce;fill-opacity:1;stroke:none;stroke-width:0"
             inkscape:connector-curvature="0" />
          <path
             id="path4458"
             transform="translate(224.58218,134.765)"
             d="m 8.03125,-3.234375 c 0,-1.03125 -0.4375,-1.4375 -1.453125,-1.4375 -0.703125,0 -1.25,0.328125 -1.609375,0.984375 -0.15625,-0.953125 -1.015625,-0.984375 -1.4375,-0.984375 -0.1875,0 -0.59375,0 -1.046875,0.328125 -0.3125,0.234375 -0.515625,0.546875 -0.578125,0.6875 l -0.015625,0 0,-0.484375 c 0,-0.328125 -0.0625,-0.484375 -0.46875,-0.484375 l -0.34375,0 c -0.359375,0 -0.484375,0.109375 -0.484375,0.484375 l 0,3.65625 C 0.59375,-0.125 0.703125,0 1.078125,0 L 1.46875,0 c 0.390625,0 0.484375,-0.125 0.484375,-0.484375 l 0,-2.203125 c 0,-0.890625 0.609375,-1.265625 1.09375,-1.265625 0.484375,0 0.59375,0.203125 0.59375,0.734375 l 0,2.734375 C 3.640625,-0.125 3.75,0 4.109375,0 l 0.40625,0 C 4.890625,0 5,-0.125 5,-0.484375 L 5,-2.6875 c 0,-0.890625 0.609375,-1.265625 1.09375,-1.265625 0.46875,0 0.578125,0.203125 0.578125,0.734375 l 0,2.734375 C 6.671875,-0.125 6.78125,0 7.15625,0 L 7.5625,0 c 0.375,0 0.46875,-0.125 0.46875,-0.484375 z m 0,0"
             style="fill:#9eb1ce;fill-opacity:1;stroke:none;stroke-width:0"
             inkscape:connector-curvature="0" />
          <path
             id="path4460"
             transform="translate(233.21677,134.765)"
             d="m 4.625,-3.15625 c 0,-1.5625 -1.515625,-1.578125 -2.015625,-1.578125 -0.46875,0 -0.96875,0.046875 -1.625,0.3125 -0.21875,0.09375 -0.265625,0.125 -0.265625,0.234375 0,0.078125 0.0625,0.65625 0.0625,0.734375 0.015625,0.046875 0.0625,0.109375 0.140625,0.109375 0.046875,0 0.078125,-0.03125 0.109375,-0.0625 0.421875,-0.453125 0.921875,-0.671875 1.546875,-0.671875 0.53125,0 0.6875,0.328125 0.6875,0.921875 l 0,0.34375 c -0.34375,0 -2.953125,0.015625 -2.953125,1.484375 0,0.703125 0.5625,1.4375 1.4375,1.4375 0.328125,0 1.078125,-0.09375 1.546875,-0.78125 l 0,0.1875 C 3.296875,-0.15625 3.375,0 3.78125,0 L 4.140625,0 C 4.53125,0 4.625,-0.125 4.625,-0.484375 Z m -1.359375,1.625 c 0,0.921875 -0.9375,0.921875 -0.96875,0.921875 -0.421875,0 -0.6875,-0.359375 -0.6875,-0.734375 0,-0.984375 1.375,-1.046875 1.65625,-1.0625 z m 0,0"
             style="fill:#9eb1ce;fill-opacity:1;stroke:none;stroke-width:0"
             inkscape:connector-curvature="0" />
          <path
             id="path4462"
             transform="translate(238.44713,134.765)"
             d="m 4.984375,-3.234375 c 0,-1.03125 -0.4375,-1.4375 -1.453125,-1.4375 -1.046875,0 -1.5,0.75 -1.625,1.015625 l -0.015625,0 0,-0.484375 c 0,-0.328125 -0.0625,-0.484375 -0.46875,-0.484375 l -0.34375,0 c -0.359375,0 -0.484375,0.109375 -0.484375,0.484375 l 0,3.65625 C 0.59375,-0.125 0.703125,0 1.078125,0 L 1.46875,0 c 0.390625,0 0.484375,-0.125 0.484375,-0.484375 l 0,-2.203125 c 0,-0.859375 0.578125,-1.265625 1.09375,-1.265625 0.484375,0 0.578125,0.21875 0.578125,0.734375 l 0,2.734375 C 3.625,-0.15625 3.703125,0 4.109375,0 L 4.5,0 c 0.390625,0 0.484375,-0.125 0.484375,-0.484375 z m 0,0"
             style="fill:#9eb1ce;fill-opacity:1;stroke:none;stroke-width:0"
             inkscape:connector-curvature="0" />
          <path
             id="path4464"
             transform="translate(244.03715,134.765)"
             d="m 4.984375,-3.234375 c 0,-1.03125 -0.4375,-1.4375 -1.453125,-1.4375 -1.046875,0 -1.5,0.75 -1.625,1.015625 l -0.015625,0 0,-0.484375 c 0,-0.328125 -0.0625,-0.484375 -0.46875,-0.484375 l -0.34375,0 c -0.359375,0 -0.484375,0.109375 -0.484375,0.484375 l 0,3.65625 C 0.59375,-0.125 0.703125,0 1.078125,0 L 1.46875,0 c 0.390625,0 0.484375,-0.125 0.484375,-0.484375 l 0,-2.203125 c 0,-0.859375 0.578125,-1.265625 1.09375,-1.265625 0.484375,0 0.578125,0.21875 0.578125,0.734375 l 0,2.734375 C 3.625,-0.15625 3.703125,0 4.109375,0 L 4.5,0 c 0.390625,0 0.484375,-0.125 0.484375,-0.484375 z m 0,0"
             style="fill:#9eb1ce;fill-opacity:1;stroke:none;stroke-width:0"
             inkscape:connector-curvature="0" />
        </g>
      </g>
    </g>
  </g>
</svg>
